<mxfile host="app.diagrams.net" modified="2023-09-26T23:39:34.024Z" agent="Mozilla/5.0 (Windows NT 10.0; Win64; x64) AppleWebKit/537.36 (KHTML, like Gecko) Chrome/117.0.0.0 Safari/537.36" etag="LC1bGJWUI3EdUgMRWZbU" version="21.8.2" type="google">
  <diagram name="PÃ¡gina-1" id="JWM-rXX2-d1zkQHl1OHu">
    <mxGraphModel dx="1354" dy="723" grid="1" gridSize="10" guides="1" tooltips="1" connect="1" arrows="1" fold="1" page="1" pageScale="1" pageWidth="827" pageHeight="1169" math="0" shadow="0">
      <root>
        <mxCell id="0" />
        <mxCell id="1" parent="0" />
        <mxCell id="1OjrZaiH9Qw_8O20uNrz-1" value="LOJA" style="rounded=0;whiteSpace=wrap;html=1;fillColor=#dae8fc;strokeColor=#6c8ebf;" parent="1" vertex="1">
          <mxGeometry x="100" y="510" width="120" height="60" as="geometry" />
        </mxCell>
        <mxCell id="1OjrZaiH9Qw_8O20uNrz-2" value="PRODUTO" style="rounded=0;whiteSpace=wrap;html=1;fillColor=#dae8fc;strokeColor=#6c8ebf;" parent="1" vertex="1">
          <mxGeometry x="560" y="510" width="120" height="60" as="geometry" />
        </mxCell>
        <mxCell id="1OjrZaiH9Qw_8O20uNrz-3" value="CLIENTE" style="rounded=0;whiteSpace=wrap;html=1;fillColor=#dae8fc;strokeColor=#6c8ebf;" parent="1" vertex="1">
          <mxGeometry x="560" y="750" width="120" height="60" as="geometry" />
        </mxCell>
        <mxCell id="1OjrZaiH9Qw_8O20uNrz-4" value="APRESENTA" style="rhombus;whiteSpace=wrap;html=1;fillColor=#ffff88;strokeColor=#36393d;" parent="1" vertex="1">
          <mxGeometry x="350" y="500" width="80" height="80" as="geometry" />
        </mxCell>
        <mxCell id="1OjrZaiH9Qw_8O20uNrz-5" value="CONSULTA" style="rhombus;whiteSpace=wrap;html=1;fillColor=#ffff88;strokeColor=#36393d;" parent="1" vertex="1">
          <mxGeometry x="580" y="620" width="80" height="80" as="geometry" />
        </mxCell>
        <mxCell id="1OjrZaiH9Qw_8O20uNrz-6" value="" style="endArrow=none;html=1;rounded=0;exitX=1;exitY=0.5;exitDx=0;exitDy=0;entryX=0;entryY=0.5;entryDx=0;entryDy=0;" parent="1" source="1OjrZaiH9Qw_8O20uNrz-1" target="1OjrZaiH9Qw_8O20uNrz-4" edge="1">
          <mxGeometry width="50" height="50" relative="1" as="geometry">
            <mxPoint x="390" y="630" as="sourcePoint" />
            <mxPoint x="440" y="580" as="targetPoint" />
          </mxGeometry>
        </mxCell>
        <mxCell id="1OjrZaiH9Qw_8O20uNrz-7" value="" style="endArrow=none;html=1;rounded=0;exitX=1;exitY=0.5;exitDx=0;exitDy=0;entryX=0;entryY=0.5;entryDx=0;entryDy=0;" parent="1" edge="1">
          <mxGeometry width="50" height="50" relative="1" as="geometry">
            <mxPoint x="430" y="539.5" as="sourcePoint" />
            <mxPoint x="560" y="539.5" as="targetPoint" />
          </mxGeometry>
        </mxCell>
        <mxCell id="1OjrZaiH9Qw_8O20uNrz-8" value="" style="endArrow=none;html=1;rounded=0;exitX=0.5;exitY=0;exitDx=0;exitDy=0;entryX=0.5;entryY=1;entryDx=0;entryDy=0;" parent="1" source="1OjrZaiH9Qw_8O20uNrz-5" target="1OjrZaiH9Qw_8O20uNrz-2" edge="1">
          <mxGeometry width="50" height="50" relative="1" as="geometry">
            <mxPoint x="440" y="549.5" as="sourcePoint" />
            <mxPoint x="570" y="549.5" as="targetPoint" />
          </mxGeometry>
        </mxCell>
        <mxCell id="1OjrZaiH9Qw_8O20uNrz-9" value="" style="endArrow=none;html=1;rounded=0;exitX=0.5;exitY=0;exitDx=0;exitDy=0;entryX=0.5;entryY=1;entryDx=0;entryDy=0;" parent="1" edge="1">
          <mxGeometry width="50" height="50" relative="1" as="geometry">
            <mxPoint x="619.5" y="750" as="sourcePoint" />
            <mxPoint x="619.5" y="700" as="targetPoint" />
          </mxGeometry>
        </mxCell>
        <mxCell id="1OjrZaiH9Qw_8O20uNrz-10" value="1" style="text;html=1;align=center;verticalAlign=middle;resizable=0;points=[];autosize=1;strokeColor=none;fillColor=none;" parent="1" vertex="1">
          <mxGeometry x="210" y="540" width="30" height="30" as="geometry" />
        </mxCell>
        <mxCell id="1OjrZaiH9Qw_8O20uNrz-11" value="N" style="text;html=1;align=center;verticalAlign=middle;resizable=0;points=[];autosize=1;strokeColor=none;fillColor=none;" parent="1" vertex="1">
          <mxGeometry x="530" y="540" width="30" height="30" as="geometry" />
        </mxCell>
        <mxCell id="1OjrZaiH9Qw_8O20uNrz-13" value="N" style="text;html=1;align=center;verticalAlign=middle;resizable=0;points=[];autosize=1;strokeColor=none;fillColor=none;" parent="1" vertex="1">
          <mxGeometry x="620" y="720" width="30" height="30" as="geometry" />
        </mxCell>
        <mxCell id="1OjrZaiH9Qw_8O20uNrz-16" value="&lt;u&gt;tipo&lt;/u&gt;" style="ellipse;whiteSpace=wrap;html=1;fillColor=#f8cecc;strokeColor=#b85450;" parent="1" vertex="1">
          <mxGeometry x="660" y="460" width="90" height="30" as="geometry" />
        </mxCell>
        <mxCell id="1OjrZaiH9Qw_8O20uNrz-18" value="" style="endArrow=none;html=1;rounded=0;exitX=1;exitY=0;exitDx=0;exitDy=0;entryX=0.5;entryY=1;entryDx=0;entryDy=0;" parent="1" source="1OjrZaiH9Qw_8O20uNrz-2" target="1OjrZaiH9Qw_8O20uNrz-16" edge="1">
          <mxGeometry width="50" height="50" relative="1" as="geometry">
            <mxPoint x="440" y="549.5" as="sourcePoint" />
            <mxPoint x="570" y="549.5" as="targetPoint" />
          </mxGeometry>
        </mxCell>
        <mxCell id="1OjrZaiH9Qw_8O20uNrz-20" value="medicamento" style="ellipse;whiteSpace=wrap;html=1;fillColor=#f8cecc;strokeColor=#b85450;" parent="1" vertex="1">
          <mxGeometry x="590" y="420" width="90" height="30" as="geometry" />
        </mxCell>
        <mxCell id="1OjrZaiH9Qw_8O20uNrz-21" value="" style="endArrow=none;html=1;rounded=0;entryX=0.5;entryY=1;entryDx=0;entryDy=0;exitX=0.622;exitY=1.033;exitDx=0;exitDy=0;exitPerimeter=0;" parent="1" source="1OjrZaiH9Qw_8O20uNrz-20" edge="1">
          <mxGeometry width="50" height="50" relative="1" as="geometry">
            <mxPoint x="650" y="480" as="sourcePoint" />
            <mxPoint x="665" y="470" as="targetPoint" />
          </mxGeometry>
        </mxCell>
        <mxCell id="1OjrZaiH9Qw_8O20uNrz-23" value="higiene" style="ellipse;whiteSpace=wrap;html=1;fillColor=#f8cecc;strokeColor=#b85450;" parent="1" vertex="1">
          <mxGeometry x="690" y="410" width="90" height="30" as="geometry" />
        </mxCell>
        <mxCell id="1OjrZaiH9Qw_8O20uNrz-24" value="" style="endArrow=none;html=1;rounded=0;entryX=1;entryY=0;entryDx=0;entryDy=0;exitX=0.622;exitY=1.033;exitDx=0;exitDy=0;exitPerimeter=0;" parent="1" source="1OjrZaiH9Qw_8O20uNrz-23" target="1OjrZaiH9Qw_8O20uNrz-16" edge="1">
          <mxGeometry width="50" height="50" relative="1" as="geometry">
            <mxPoint x="750" y="470" as="sourcePoint" />
            <mxPoint x="765" y="460" as="targetPoint" />
          </mxGeometry>
        </mxCell>
        <mxCell id="1OjrZaiH9Qw_8O20uNrz-25" value="suplemento" style="ellipse;whiteSpace=wrap;html=1;fillColor=#f8cecc;strokeColor=#b85450;" parent="1" vertex="1">
          <mxGeometry x="730" y="500" width="90" height="30" as="geometry" />
        </mxCell>
        <mxCell id="1OjrZaiH9Qw_8O20uNrz-26" value="beleza" style="ellipse;whiteSpace=wrap;html=1;fillColor=#f8cecc;strokeColor=#b85450;" parent="1" vertex="1">
          <mxGeometry x="550" y="460" width="90" height="30" as="geometry" />
        </mxCell>
        <mxCell id="1OjrZaiH9Qw_8O20uNrz-27" value="" style="endArrow=none;html=1;rounded=0;entryX=0;entryY=1;entryDx=0;entryDy=0;exitX=0.933;exitY=0.767;exitDx=0;exitDy=0;exitPerimeter=0;" parent="1" source="1OjrZaiH9Qw_8O20uNrz-26" target="1OjrZaiH9Qw_8O20uNrz-16" edge="1">
          <mxGeometry width="50" height="50" relative="1" as="geometry">
            <mxPoint x="600" y="516" as="sourcePoint" />
            <mxPoint x="587" y="510" as="targetPoint" />
          </mxGeometry>
        </mxCell>
        <mxCell id="1OjrZaiH9Qw_8O20uNrz-28" value="" style="endArrow=none;html=1;rounded=0;entryX=1;entryY=1;entryDx=0;entryDy=0;" parent="1" target="1OjrZaiH9Qw_8O20uNrz-16" edge="1">
          <mxGeometry width="50" height="50" relative="1" as="geometry">
            <mxPoint x="760" y="500" as="sourcePoint" />
            <mxPoint x="747" y="474" as="targetPoint" />
          </mxGeometry>
        </mxCell>
        <mxCell id="1OjrZaiH9Qw_8O20uNrz-30" value="" style="endArrow=none;html=1;rounded=0;exitX=1;exitY=0;exitDx=0;exitDy=0;entryX=0.5;entryY=1;entryDx=0;entryDy=0;" parent="1" edge="1">
          <mxGeometry width="50" height="50" relative="1" as="geometry">
            <mxPoint x="180" y="510" as="sourcePoint" />
            <mxPoint x="205" y="490" as="targetPoint" />
          </mxGeometry>
        </mxCell>
        <mxCell id="1OjrZaiH9Qw_8O20uNrz-31" value="tel celular" style="ellipse;whiteSpace=wrap;html=1;fillColor=#f8cecc;strokeColor=#b85450;" parent="1" vertex="1">
          <mxGeometry x="91" y="420" width="90" height="30" as="geometry" />
        </mxCell>
        <mxCell id="1OjrZaiH9Qw_8O20uNrz-32" value="" style="endArrow=none;html=1;rounded=0;entryX=0;entryY=0;entryDx=0;entryDy=0;exitX=0.622;exitY=1.033;exitDx=0;exitDy=0;exitPerimeter=0;fillColor=#f8cecc;strokeColor=#b85450;" parent="1" source="1OjrZaiH9Qw_8O20uNrz-31" target="1OjrZaiH9Qw_8O20uNrz-60" edge="1">
          <mxGeometry width="50" height="50" relative="1" as="geometry">
            <mxPoint x="150" y="480" as="sourcePoint" />
            <mxPoint x="165" y="470" as="targetPoint" />
          </mxGeometry>
        </mxCell>
        <mxCell id="1OjrZaiH9Qw_8O20uNrz-36" value="email" style="ellipse;whiteSpace=wrap;html=1;fillColor=#f8cecc;strokeColor=#b85450;" parent="1" vertex="1">
          <mxGeometry x="50" y="460" width="90" height="30" as="geometry" />
        </mxCell>
        <mxCell id="1OjrZaiH9Qw_8O20uNrz-37" value="" style="endArrow=none;html=1;rounded=0;entryX=0;entryY=1;entryDx=0;entryDy=0;exitX=0.933;exitY=0.767;exitDx=0;exitDy=0;exitPerimeter=0;" parent="1" source="1OjrZaiH9Qw_8O20uNrz-36" target="1OjrZaiH9Qw_8O20uNrz-60" edge="1">
          <mxGeometry width="50" height="50" relative="1" as="geometry">
            <mxPoint x="100" y="516" as="sourcePoint" />
            <mxPoint x="173.18019484660545" y="485.6066017177982" as="targetPoint" />
          </mxGeometry>
        </mxCell>
        <mxCell id="1OjrZaiH9Qw_8O20uNrz-47" value="EndereÃ§o" style="ellipse;whiteSpace=wrap;html=1;fillColor=#f8cecc;strokeColor=#b85450;" parent="1" vertex="1">
          <mxGeometry x="190" y="600" width="90" height="30" as="geometry" />
        </mxCell>
        <mxCell id="1OjrZaiH9Qw_8O20uNrz-48" value="bairro" style="ellipse;whiteSpace=wrap;html=1;fillColor=#f8cecc;strokeColor=#b85450;" parent="1" vertex="1">
          <mxGeometry x="115" y="660" width="90" height="30" as="geometry" />
        </mxCell>
        <mxCell id="1OjrZaiH9Qw_8O20uNrz-49" value="" style="endArrow=none;html=1;rounded=0;entryX=0;entryY=1;entryDx=0;entryDy=0;exitX=1;exitY=0;exitDx=0;exitDy=0;" parent="1" source="1OjrZaiH9Qw_8O20uNrz-48" target="1OjrZaiH9Qw_8O20uNrz-47" edge="1">
          <mxGeometry width="50" height="50" relative="1" as="geometry">
            <mxPoint x="210" y="655" as="sourcePoint" />
            <mxPoint x="225" y="645" as="targetPoint" />
          </mxGeometry>
        </mxCell>
        <mxCell id="1OjrZaiH9Qw_8O20uNrz-50" value="cep" style="ellipse;whiteSpace=wrap;html=1;fillColor=#f8cecc;strokeColor=#b85450;" parent="1" vertex="1">
          <mxGeometry x="280" y="645" width="90" height="30" as="geometry" />
        </mxCell>
        <mxCell id="1OjrZaiH9Qw_8O20uNrz-51" value="" style="endArrow=none;html=1;rounded=0;entryX=1;entryY=0.5;entryDx=0;entryDy=0;exitX=0.333;exitY=0;exitDx=0;exitDy=0;exitPerimeter=0;" parent="1" source="1OjrZaiH9Qw_8O20uNrz-50" target="1OjrZaiH9Qw_8O20uNrz-47" edge="1">
          <mxGeometry width="50" height="50" relative="1" as="geometry">
            <mxPoint x="310" y="645" as="sourcePoint" />
            <mxPoint x="325" y="635" as="targetPoint" />
          </mxGeometry>
        </mxCell>
        <mxCell id="1OjrZaiH9Qw_8O20uNrz-52" value="numero" style="ellipse;whiteSpace=wrap;html=1;fillColor=#f8cecc;strokeColor=#b85450;" parent="1" vertex="1">
          <mxGeometry x="210" y="680" width="90" height="30" as="geometry" />
        </mxCell>
        <mxCell id="1OjrZaiH9Qw_8O20uNrz-53" value="" style="endArrow=none;html=1;rounded=0;entryX=0.589;entryY=1.033;entryDx=0;entryDy=0;exitX=0.5;exitY=0;exitDx=0;exitDy=0;entryPerimeter=0;" parent="1" source="1OjrZaiH9Qw_8O20uNrz-52" target="1OjrZaiH9Qw_8O20uNrz-47" edge="1">
          <mxGeometry width="50" height="50" relative="1" as="geometry">
            <mxPoint x="160" y="691" as="sourcePoint" />
            <mxPoint x="147" y="685" as="targetPoint" />
          </mxGeometry>
        </mxCell>
        <mxCell id="1OjrZaiH9Qw_8O20uNrz-55" value="" style="endArrow=none;html=1;rounded=0;exitX=0.75;exitY=1;exitDx=0;exitDy=0;entryX=0.278;entryY=-0.033;entryDx=0;entryDy=0;entryPerimeter=0;" parent="1" source="1OjrZaiH9Qw_8O20uNrz-1" target="1OjrZaiH9Qw_8O20uNrz-47" edge="1">
          <mxGeometry width="50" height="50" relative="1" as="geometry">
            <mxPoint x="190" y="520" as="sourcePoint" />
            <mxPoint x="215" y="500" as="targetPoint" />
          </mxGeometry>
        </mxCell>
        <mxCell id="1OjrZaiH9Qw_8O20uNrz-60" value="contato" style="ellipse;shape=doubleEllipse;margin=3;whiteSpace=wrap;html=1;align=center;fillColor=#f8cecc;strokeColor=#b85450;" parent="1" vertex="1">
          <mxGeometry x="170" y="455" width="100" height="40" as="geometry" />
        </mxCell>
        <mxCell id="VbRsAmXg1zArXQHpmSzN-2" value="preÃ§o" style="ellipse;whiteSpace=wrap;html=1;fillColor=#f8cecc;strokeColor=#b85450;" parent="1" vertex="1">
          <mxGeometry x="700" y="570" width="90" height="30" as="geometry" />
        </mxCell>
        <mxCell id="VbRsAmXg1zArXQHpmSzN-4" value="" style="endArrow=none;html=1;rounded=0;exitX=1;exitY=1;exitDx=0;exitDy=0;entryX=0;entryY=0.5;entryDx=0;entryDy=0;" parent="1" source="1OjrZaiH9Qw_8O20uNrz-2" target="VbRsAmXg1zArXQHpmSzN-2" edge="1">
          <mxGeometry width="50" height="50" relative="1" as="geometry">
            <mxPoint x="690" y="520" as="sourcePoint" />
            <mxPoint x="715" y="500" as="targetPoint" />
          </mxGeometry>
        </mxCell>
        <mxCell id="VbRsAmXg1zArXQHpmSzN-5" value="nome" style="ellipse;whiteSpace=wrap;html=1;fillColor=#f8cecc;strokeColor=#b85450;" parent="1" vertex="1">
          <mxGeometry x="450" y="480" width="90" height="30" as="geometry" />
        </mxCell>
        <mxCell id="VbRsAmXg1zArXQHpmSzN-6" value="" style="endArrow=none;html=1;rounded=0;entryX=0;entryY=0;entryDx=0;entryDy=0;exitX=1;exitY=0.5;exitDx=0;exitDy=0;" parent="1" source="VbRsAmXg1zArXQHpmSzN-5" target="1OjrZaiH9Qw_8O20uNrz-2" edge="1">
          <mxGeometry width="50" height="50" relative="1" as="geometry">
            <mxPoint x="644" y="493" as="sourcePoint" />
            <mxPoint x="683" y="496" as="targetPoint" />
          </mxGeometry>
        </mxCell>
        <mxCell id="VbRsAmXg1zArXQHpmSzN-7" value="&lt;u&gt;nome&lt;/u&gt;" style="ellipse;whiteSpace=wrap;html=1;fillColor=#f8cecc;strokeColor=#b85450;" parent="1" vertex="1">
          <mxGeometry x="720" y="780" width="90" height="30" as="geometry" />
        </mxCell>
        <mxCell id="VbRsAmXg1zArXQHpmSzN-11" value="" style="endArrow=none;html=1;rounded=0;exitX=0;exitY=0.5;exitDx=0;exitDy=0;entryX=1;entryY=0.5;entryDx=0;entryDy=0;" parent="1" source="VbRsAmXg1zArXQHpmSzN-7" target="1OjrZaiH9Qw_8O20uNrz-3" edge="1">
          <mxGeometry width="50" height="50" relative="1" as="geometry">
            <mxPoint x="690" y="580" as="sourcePoint" />
            <mxPoint x="710" y="595" as="targetPoint" />
          </mxGeometry>
        </mxCell>
        <mxCell id="f725uY4kTPGvRAI40MZK-1" value="tel celular" style="ellipse;whiteSpace=wrap;html=1;fillColor=#f8cecc;strokeColor=#b85450;" vertex="1" parent="1">
          <mxGeometry x="710" y="880" width="90" height="30" as="geometry" />
        </mxCell>
        <mxCell id="f725uY4kTPGvRAI40MZK-2" value="" style="endArrow=none;html=1;rounded=0;entryX=0;entryY=0;entryDx=0;entryDy=0;exitX=0;exitY=0.5;exitDx=0;exitDy=0;" edge="1" parent="1" source="f725uY4kTPGvRAI40MZK-1" target="f725uY4kTPGvRAI40MZK-5">
          <mxGeometry width="50" height="50" relative="1" as="geometry">
            <mxPoint x="725" y="940" as="sourcePoint" />
            <mxPoint x="740" y="930" as="targetPoint" />
          </mxGeometry>
        </mxCell>
        <mxCell id="f725uY4kTPGvRAI40MZK-3" value="tel fixo" style="ellipse;whiteSpace=wrap;html=1;fillColor=#f8cecc;strokeColor=#b85450;" vertex="1" parent="1">
          <mxGeometry x="625" y="920" width="90" height="30" as="geometry" />
        </mxCell>
        <mxCell id="f725uY4kTPGvRAI40MZK-4" value="" style="endArrow=none;html=1;rounded=0;entryX=0.5;entryY=1;entryDx=0;entryDy=0;exitX=0.5;exitY=0;exitDx=0;exitDy=0;" edge="1" parent="1" source="f725uY4kTPGvRAI40MZK-3" target="f725uY4kTPGvRAI40MZK-5">
          <mxGeometry width="50" height="50" relative="1" as="geometry">
            <mxPoint x="675" y="976" as="sourcePoint" />
            <mxPoint x="748.1801948466054" y="945.6066017177982" as="targetPoint" />
          </mxGeometry>
        </mxCell>
        <mxCell id="f725uY4kTPGvRAI40MZK-5" value="contato" style="ellipse;shape=doubleEllipse;margin=3;whiteSpace=wrap;html=1;align=center;fillColor=#f8cecc;strokeColor=#b85450;" vertex="1" parent="1">
          <mxGeometry x="615" y="840" width="100" height="40" as="geometry" />
        </mxCell>
        <mxCell id="f725uY4kTPGvRAI40MZK-7" value="EndereÃ§o" style="ellipse;whiteSpace=wrap;html=1;fillColor=#f8cecc;strokeColor=#b85450;" vertex="1" parent="1">
          <mxGeometry x="430" y="800" width="90" height="30" as="geometry" />
        </mxCell>
        <mxCell id="f725uY4kTPGvRAI40MZK-8" value="bairro" style="ellipse;whiteSpace=wrap;html=1;fillColor=#f8cecc;strokeColor=#b85450;" vertex="1" parent="1">
          <mxGeometry x="325" y="860" width="90" height="30" as="geometry" />
        </mxCell>
        <mxCell id="f725uY4kTPGvRAI40MZK-9" value="" style="endArrow=none;html=1;rounded=0;entryX=0;entryY=1;entryDx=0;entryDy=0;exitX=1;exitY=0;exitDx=0;exitDy=0;" edge="1" source="f725uY4kTPGvRAI40MZK-8" target="f725uY4kTPGvRAI40MZK-7" parent="1">
          <mxGeometry width="50" height="50" relative="1" as="geometry">
            <mxPoint x="420" y="855" as="sourcePoint" />
            <mxPoint x="435" y="845" as="targetPoint" />
          </mxGeometry>
        </mxCell>
        <mxCell id="f725uY4kTPGvRAI40MZK-10" value="cep" style="ellipse;whiteSpace=wrap;html=1;fillColor=#f8cecc;strokeColor=#b85450;" vertex="1" parent="1">
          <mxGeometry x="490" y="845" width="90" height="30" as="geometry" />
        </mxCell>
        <mxCell id="f725uY4kTPGvRAI40MZK-11" value="" style="endArrow=none;html=1;rounded=0;entryX=1;entryY=0.5;entryDx=0;entryDy=0;exitX=0.333;exitY=0;exitDx=0;exitDy=0;exitPerimeter=0;" edge="1" source="f725uY4kTPGvRAI40MZK-10" target="f725uY4kTPGvRAI40MZK-7" parent="1">
          <mxGeometry width="50" height="50" relative="1" as="geometry">
            <mxPoint x="520" y="845" as="sourcePoint" />
            <mxPoint x="535" y="835" as="targetPoint" />
          </mxGeometry>
        </mxCell>
        <mxCell id="f725uY4kTPGvRAI40MZK-12" value="numero" style="ellipse;whiteSpace=wrap;html=1;fillColor=#f8cecc;strokeColor=#b85450;" vertex="1" parent="1">
          <mxGeometry x="420" y="880" width="90" height="30" as="geometry" />
        </mxCell>
        <mxCell id="f725uY4kTPGvRAI40MZK-13" value="" style="endArrow=none;html=1;rounded=0;entryX=0.589;entryY=1.033;entryDx=0;entryDy=0;exitX=0.5;exitY=0;exitDx=0;exitDy=0;entryPerimeter=0;" edge="1" source="f725uY4kTPGvRAI40MZK-12" target="f725uY4kTPGvRAI40MZK-7" parent="1">
          <mxGeometry width="50" height="50" relative="1" as="geometry">
            <mxPoint x="370" y="891" as="sourcePoint" />
            <mxPoint x="357" y="885" as="targetPoint" />
          </mxGeometry>
        </mxCell>
        <mxCell id="f725uY4kTPGvRAI40MZK-14" value="" style="endArrow=none;html=1;rounded=0;exitX=0;exitY=0.5;exitDx=0;exitDy=0;entryX=1;entryY=0;entryDx=0;entryDy=0;" edge="1" target="f725uY4kTPGvRAI40MZK-7" parent="1" source="1OjrZaiH9Qw_8O20uNrz-3">
          <mxGeometry width="50" height="50" relative="1" as="geometry">
            <mxPoint x="400" y="770" as="sourcePoint" />
            <mxPoint x="425" y="700" as="targetPoint" />
          </mxGeometry>
        </mxCell>
        <mxCell id="f725uY4kTPGvRAI40MZK-15" value="" style="endArrow=none;html=1;rounded=0;exitX=0.617;exitY=1.017;exitDx=0;exitDy=0;entryX=0.5;entryY=0;entryDx=0;entryDy=0;exitPerimeter=0;" edge="1" parent="1" source="1OjrZaiH9Qw_8O20uNrz-3" target="f725uY4kTPGvRAI40MZK-5">
          <mxGeometry width="50" height="50" relative="1" as="geometry">
            <mxPoint x="570" y="790" as="sourcePoint" />
            <mxPoint x="517" y="814" as="targetPoint" />
          </mxGeometry>
        </mxCell>
        <mxCell id="f725uY4kTPGvRAI40MZK-16" value="&lt;u&gt;nome&lt;/u&gt;" style="ellipse;whiteSpace=wrap;html=1;fillColor=#f8cecc;strokeColor=#b85450;" vertex="1" parent="1">
          <mxGeometry x="10" y="600" width="90" height="30" as="geometry" />
        </mxCell>
        <mxCell id="f725uY4kTPGvRAI40MZK-17" value="" style="endArrow=none;html=1;rounded=0;exitX=0.083;exitY=1.017;exitDx=0;exitDy=0;entryX=0.5;entryY=0;entryDx=0;entryDy=0;exitPerimeter=0;" edge="1" parent="1" source="1OjrZaiH9Qw_8O20uNrz-1" target="f725uY4kTPGvRAI40MZK-16">
          <mxGeometry width="50" height="50" relative="1" as="geometry">
            <mxPoint x="190" y="520" as="sourcePoint" />
            <mxPoint x="215" y="500" as="targetPoint" />
          </mxGeometry>
        </mxCell>
      </root>
    </mxGraphModel>
  </diagram>
</mxfile>
